<?xml version="1.0" encoding="UTF-8" standalone="no"?>
<!-- Created with Inkscape (http://www.inkscape.org/) -->

<svg
   width="240mm"
   height="240mm"
   viewBox="0 0 240 240"
   version="1.1"
   id="svg1"
   xml:space="preserve"
   inkscape:version="1.4.3 (0d15f75, 2025-12-25)"
   sodipodi:docname="icon.svg"
   inkscape:export-filename="icon@2x.png"
   inkscape:export-xdpi="108.37334"
   inkscape:export-ydpi="108.37334"
   xmlns:inkscape="http://www.inkscape.org/namespaces/inkscape"
   xmlns:sodipodi="http://sodipodi.sourceforge.net/DTD/sodipodi-0.dtd"
   xmlns="http://www.w3.org/2000/svg"
   xmlns:svg="http://www.w3.org/2000/svg"><sodipodi:namedview
     id="namedview1"
     pagecolor="#ffffff"
     bordercolor="#000000"
     borderopacity="0.25"
     inkscape:showpageshadow="2"
     inkscape:pageopacity="0.0"
     inkscape:pagecheckerboard="0"
     inkscape:deskcolor="#d1d1d1"
     inkscape:document-units="mm"
     inkscape:zoom="0.5098596"
     inkscape:cx="552.11278"
     inkscape:cy="432.472"
     inkscape:window-width="1728"
     inkscape:window-height="1052"
     inkscape:window-x="0"
     inkscape:window-y="65"
     inkscape:window-maximized="0"
     inkscape:current-layer="layer1" /><defs
     id="defs1" /><g
     inkscape:label="Слой 1"
     inkscape:groupmode="layer"
     id="layer1"><g
       transform="matrix(0.32693778,0,0,0.32552298,-3.5051907,-4.7247838)"
       id="g1"><path
         d="m 455.145,485.687 c 18.641,-4.048 38.414,-15.065 38.414,-15.065 l -34.607,-28.507 c -17.108,-14.081 -31.67,-30.999 -43.054,-50.007 -15.731,-26.263 -37.467,-48.425 -63.413,-64.663 l -12.672,-7.379 c -4.342,-3.018 -7.369,-7.722 -7.8,-13.029 -0.276,-3.422 0.544,-6.481 2.457,-9.173 6.598,-9.3 40.702,-49.767 46.952,-54.938 8.049,-6.653 17.018,-12.187 25.339,-18.523 1.183,-0.902 2.37,-1.799 3.539,-2.714 0.041,-0.041 0.1,-0.073 0.136,-0.109 2.67,-2.108 5.19,-4.347 7.193,-7.002 7.233,-8.376 8.991,-15.781 9.422,-19.058 -0.979,-3.154 -3.898,-10.206 -12.033,-18.341 5.099,0.313 11.272,4.346 16.869,9.091 3.757,-6.005 7.691,-12.35 11.62,-18.708 2.624,-4.247 -1.269,-7.424 -1.378,-7.523 l -0.022,-0.005 c 0,0 0,-0.018 -0.005,-0.022 -0.1,-0.109 -3.277,-4.002 -7.514,-1.378 -9.06,5.606 -18.115,11.217 -26.168,16.315 0,0 -9.545,-0.199 -20.848,9.563 -2.66,2.008 -4.899,4.527 -7.002,7.192 -0.041,0.041 -0.077,0.095 -0.109,0.136 -0.92,1.165 -1.817,2.352 -2.714,3.54 -6.341,8.325 -11.87,17.29 -18.523,25.339 -5.167,6.254 -45.638,40.353 -54.938,46.952 -2.692,1.913 -5.747,2.737 -9.173,2.456 -5.302,-0.426 -10.011,-3.458 -13.03,-7.799 l -7.378,-12.672 c -16.238,-25.955 -38.4,-47.682 -64.663,-63.413 -19.008,-11.384 -35.922,-25.951 -50.007,-43.055 l -28.516,-34.607 c 0,0 -11.022,19.769 -15.065,38.414 5.624,6.839 20.295,23.812 37.372,36.774 -18.36,-8.634 -31.933,-15.31 -42.638,-20.893 -1.65,12.209 -1.006,30.673 0.693,44.972 11.589,5.071 31.321,12.884 51.408,17.036 -16.067,3.757 -33.692,4.441 -47.302,4.174 2.398,8.851 5.733,17.879 10.22,26.961 1.908,4.201 3.997,8.303 6.254,12.318 7.202,1.981 35.478,6.1 50.524,2.719 -14.969,5.344 -40.1,14.322 -40.1,14.322 19.302,24.015 40.635,43.553 40.635,43.553 32.449,-17.448 39.846,-19.832 64.183,-35.749 -39.411,32.069 -49.64,45.162 -60.703,58.618 l -7.709,10.818 c -4.006,5.62 -7.482,11.589 -10.387,17.847 -9.721,20.916 -23.481,65.484 -23.481,65.484 -2.456,7.768 3.236,13.461 10.777,10.778 0,0 44.56,-13.76 65.484,-23.481 6.255,-2.91 12.233,-6.386 17.848,-10.388 l 10.818,-7.709 c 3.63,-2.986 7.238,-5.914 11.199,-9.367 0,0 27.233,32.263 55.227,53.487 0,0 8.979,-25.13 14.322,-40.1 -3.386,15.051 0.734,43.327 2.719,50.524 4.006,2.257 8.117,4.346 12.318,6.254 9.087,4.491 18.11,7.823 26.962,10.22 -0.263,-13.614 0.417,-31.235 4.174,-47.301 4.151,20.086 11.96,39.823 17.036,51.407 14.298,1.7 32.762,2.343 44.972,0.693 -5.584,-10.704 -12.26,-24.287 -20.893,-42.637 12.961,17.077 29.934,31.747 36.773,37.371 z"
         fill="#000000"
         id="path1" /></g><g
       style="opacity:1;mix-blend-mode:color-burn;fill:#050122;fill-opacity:1;fill-rule:nonzero"
       id="g3"
       transform="matrix(1.4192109,0,0,1.423508,154.42954,151.51164)"><path
         d="M 24.9953,4.36994 32.3327,8.68251 36.0532,6.50232 24.9953,0 6.52481,10.8627 10.2264,13.0429 Z"
         fill="#050122"
         id="path1-8"
         style="fill:#050122;fill-opacity:1;fill-rule:nonzero" /><path
         d="M 39.7549,8.68259 24.9954,17.3555 17.658,13.043 13.947,15.2231 24.9954,21.7159 43.4753,10.8628 Z"
         fill="#050122"
         id="path2"
         style="fill:#050122;fill-opacity:1;fill-rule:nonzero" /><path
         d="M 8.71101,24.332 5,22.1518 V 35.1373 L 23.4705,46 V 41.6396 L 8.71101,32.9571 Z"
         fill="#050122"
         id="path3"
         style="fill:#050122;fill-opacity:1;fill-rule:nonzero" /><path
         d="m 5,17.7913 14.7595,8.673 v 8.6251 l 3.711,2.1897 V 24.2841 L 5,13.4309 Z"
         fill="#050122"
         id="path4"
         style="fill:#050122;fill-opacity:1;fill-rule:nonzero" /><path
         d="M 37.5778,22.1517 V 17.7914 L 26.52,24.2841 v 21.7158 l 3.711,-2.1801 V 26.4643 Z"
         fill="#050122"
         id="path5"
         style="fill:#050122;fill-opacity:1;fill-rule:nonzero" /><path
         d="M 41.2796,15.6111 V 32.957 l -7.3375,4.3221 v 4.3604 L 45,35.1372 V 13.4309 Z"
         fill="#050122"
         id="path6"
         style="fill:#050122;fill-opacity:1;fill-rule:nonzero" /></g></g></svg>
